# xmcd
#
# Track frame offsets:
# 150
# 19289
# 31352
# 42974
# 56364
# 67149
# 77538
# 87948
# 99587
# 111214
# 125758
# 137851
# 150670
# 163866
# 177657
# 192001
# 203167
# 216909
# 230870
# 249246
#
# Disc length: 3455 seconds
#
#
# Revision: 0
# Processed by: cddbd v1.5.2PL0 Copyright (c) Steve Scherf et al.
# Submitted via: FreeRIP 2.951 
#
DISCID=210d7d14
DTITLE=Various Artist - Las Vegas Legends
DYEAR=1900
DGENRE=Swing
TTITLE0=Tony Bennett - Fly Me To The Moon
TTITLE1=Sammy Davis Jr - Please Don't Talk About Me When I'm Gone
TTITLE2=Matt Monro - From Russia With Love
TTITLE3=Andy Williams - Something Stupid
TTITLE4=Dean Martin - Kiss
TTITLE5=Shirley Bassey - As I Love You
TTITLE6=Dinah Washington - Call Me Irresponsible
TTITLE7=Frank Sinatra - You Do Somthing To Me
TTITLE8=Liza Minnelli - You Are The Sunshine Of My Life
TTITLE9=Sarah Vaughan - All Or Nothing At All
TTITLE10=Perry Como - Papa Loves Mambo
TTITLE11=Bobby Vinton - Blue Velvet
TTITLE12=Robert Goulet - If I Ruled The World
TTITLE13=Dekota Staton - Someone To Watch Over Me
TTITLE14=Ray Anthony - I Only Have Eyes For You
TTITLE15=Sammy Davis Jr - I Ain't Got Nobody
TTITLE16=Eartha Kitt - Too Close For Comfort
TTITLE17=Johnnie Ray - Cry
TTITLE18=Nina Simone - I Love You Porgy
TTITLE19=Frank Sinatra - I've Got The World On A String
EXTD=
EXTT0=
EXTT1=
EXTT2=
EXTT3=
EXTT4=
EXTT5=
EXTT6=
EXTT7=
EXTT8=
EXTT9=
EXTT10=
EXTT11=
EXTT12=
EXTT13=
EXTT14=
EXTT15=
EXTT16=
EXTT17=
EXTT18=
EXTT19=
PLAYORDER=
